<svg xmlns="http://www.w3.org/2000/svg" width="100" height="117.308" viewBox="0 0 100 106.07" fill="#d72323"> <g> <path d="M63.396 66.416a35 35 0 0 1-11.31 8.056 35 35 0 0 1-14.272 3.046c-10.753-.003-21.097-4.979-27.793-13.65a5.3 5.3 0 0 0 1.814-3.98c0-.713-.146-1.438-.453-2.126a5.27 5.27 0 0 0-4.822-3.121c-.73 0-1.47.152-2.171.464a5.3 5.3 0 0 0-3.156 4.841c0 .714.147 1.44.455 2.131a5.27 5.27 0 0 0 4.819 3.117q.544.001 1.09-.113c7.191 9.586 18.481 15.095 30.217 15.093 5.135 0 10.36-1.052 15.353-3.274a37.7 37.7 0 0 0 12.456-8.982 5.06 5.06 0 0 1-2.227-1.502zM4.112 60.994a2.6 2.6 0 0 1-.225-1.05 2.64 2.64 0 0 1 1.581-2.414 2.7 2.7 0 0 1 1.093-.237 2.62 2.62 0 0 1 2.397 1.545c.154.343.223.695.223 1.049 0 1-.587 1.975-1.587 2.42a2.65 2.65 0 0 1-1.086.232 2.61 2.61 0 0 1-2.395-1.543zM2.55 51.719a6 6 0 0 1 1.265-.403 34.9 34.9 0 0 1-1.16-8.914c.002-13.455 7.768-26.294 20.853-32.116a35 35 0 0 1 9.43-2.678 5.27 5.27 0 0 0 4.729 2.945 5.325 5.325 0 0 0 5.325-5.308c0-.709-.145-1.434-.451-2.125A5.27 5.27 0 0 0 37.72 0c-.729 0-1.469.153-2.17.465a5.29 5.29 0 0 0-3.136 4.538 37.5 37.5 0 0 0-9.982 2.858C8.358 14.124-.002 27.933 0 42.401c0 3.335.453 6.706 1.374 10.028a6 6 0 0 1 1.176-.71zM35.272 6.355a2.5 2.5 0 0 1-.227-1.052 2.64 2.64 0 0 1 1.58-2.412 2.65 2.65 0 0 1 1.094-.236 2.62 2.62 0 0 1 2.398 1.544c.151.34.22.693.22 1.046a2.666 2.666 0 0 1-2.67 2.653c-1.015-.002-1.971-.579-2.396-1.541zM73.047 55.93a37.8 37.8 0 0 0 2.539-13.567 37.7 37.7 0 0 0-3.274-15.349C67.331 15.833 57.59 8.277 46.544 5.637a5 5 0 0 1-.448 2.623c10.202 2.492 19.188 9.492 23.79 19.832a35 35 0 0 1 3.048 14.271 35.1 35.1 0 0 1-2.364 12.611 6 6 0 0 0-.6-.042 5.3 5.3 0 0 0-2.169.465 5.29 5.29 0 0 0-3.158 4.838c0 .716.148 1.444.455 2.135h.001a5.27 5.27 0 0 0 4.819 3.113 5.3 5.3 0 0 0 2.167-.461 5.32 5.32 0 0 0 3.159-4.846c0-.709-.144-1.436-.45-2.125a5.23 5.23 0 0 0-1.747-2.121zM67.523 61.286a2.5 2.5 0 0 1-.228-1.052 2.64 2.64 0 0 1 1.581-2.412 2.7 2.7 0 0 1 1.093-.238c1.016.004 1.969.575 2.398 1.546.152.342.222.693.222 1.046a2.66 2.66 0 0 1-2.672 2.651c-1.014-.002-1.971-.58-2.395-1.539z"/> </g></svg>